<svg width="443" height="75" viewBox="0 0 443 75" fill="none" xmlns="http://www.w3.org/2000/svg">
<path d="M21.76 40.4C19.5467 40.4 17.44 40.0933 15.44 39.48C13.44 38.8667 11.6667 37.96 10.12 36.76C8.57333 35.56 7.34667 34.0667 6.44 32.28C5.56 30.4667 5.12 28.3733 5.12 26C5.12 24 5.56 22.1333 6.44 20.4C7.32 18.6667 8.54667 17.16 10.12 15.88C11.72 14.5733 13.56 13.56 15.64 12.84C17.7467 12.12 20 11.76 22.4 11.76C24.4267 11.76 26.2933 11.9867 28 12.44C29.7333 12.8933 31.2533 13.48 32.56 14.2C33.8933 14.92 34.9333 15.6933 35.68 16.52L32.88 19.68C31.92 18.9333 30.88 18.2933 29.76 17.76C28.6667 17.2 27.4933 16.76 26.24 16.44C25.0133 16.12 23.7333 15.96 22.4 15.96C20.6133 15.96 18.9467 16.2133 17.4 16.72C15.88 17.2267 14.5333 17.9333 13.36 18.84C12.2133 19.7467 11.32 20.8133 10.68 22.04C10.04 23.24 9.72 24.56 9.72 26C9.72 27.76 10.0533 29.2933 10.72 30.6C11.4133 31.88 12.3467 32.9333 13.52 33.76C14.6933 34.5867 16.0133 35.2 17.48 35.6C18.9733 36 20.52 36.2 22.12 36.2C23.7467 36.2 25.2667 36.0533 26.68 35.76C28.12 35.44 29.3733 35 30.44 34.44C31.5067 33.8533 32.3333 33.1733 32.92 32.4C33.5067 31.6267 33.76 30.7867 33.68 29.88L33.64 29.36L34.28 30.24H22.32V26.04H38.32C38.3733 26.44 38.4133 26.76 38.44 27C38.4667 27.24 38.48 27.4267 38.48 27.56C38.48 27.6667 38.48 27.7733 38.48 27.88C38.48 29.9867 38.0667 31.8267 37.24 33.4C36.44 34.9733 35.2933 36.28 33.8 37.32C32.3333 38.3333 30.5733 39.1067 28.52 39.64C26.4933 40.1467 24.24 40.4 21.76 40.4ZM65.3212 40.4C62.8413 40.4 60.5746 40.04 58.5213 39.32C56.4679 38.5733 54.6813 37.5467 53.1613 36.24C51.6413 34.9067 50.4679 33.3733 49.6413 31.64C48.8146 29.88 48.4013 28 48.4013 26C48.4013 24 48.8146 22.1333 49.6413 20.4C50.4679 18.64 51.6413 17.1067 53.1613 15.8C54.6813 14.4667 56.4679 13.44 58.5213 12.72C60.5746 11.9733 62.8413 11.6 65.3212 11.6C67.7746 11.6 70.0279 11.9733 72.0813 12.72C74.1346 13.44 75.9213 14.4667 77.4413 15.8C78.9613 17.1067 80.1346 18.64 80.9613 20.4C81.8146 22.1333 82.2413 24 82.2413 26C82.2413 28 81.8146 29.88 80.9613 31.64C80.1346 33.3733 78.9613 34.9067 77.4413 36.24C75.9213 37.5467 74.1346 38.5733 72.0813 39.32C70.0279 40.04 67.7746 40.4 65.3212 40.4ZM65.3212 36.2C67.1613 36.2 68.8413 35.9467 70.3613 35.44C71.8813 34.9067 73.2013 34.1867 74.3213 33.28C75.4413 32.3467 76.3079 31.2667 76.9213 30.04C77.5346 28.7867 77.8413 27.44 77.8413 26C77.8413 24.56 77.5346 23.2267 76.9213 22C76.3079 20.7467 75.4413 19.6667 74.3213 18.76C73.2013 17.8267 71.8813 17.1067 70.3613 16.6C68.8413 16.0667 67.1613 15.8 65.3212 15.8C63.4813 15.8 61.7879 16.0667 60.2413 16.6C58.7213 17.1067 57.4013 17.8267 56.2813 18.76C55.1613 19.6667 54.2946 20.7467 53.6813 22C53.0946 23.2267 52.8013 24.56 52.8013 26C52.8013 27.44 53.0946 28.7867 53.6813 30.04C54.2946 31.2667 55.1613 32.3467 56.2813 33.28C57.4013 34.1867 58.7213 34.9067 60.2413 35.44C61.7879 35.9467 63.4813 36.2 65.3212 36.2ZM94.6238 40V12H98.9438V35.84H117.664V40H94.6238ZM130.561 40V12H144.721C147.281 12 149.535 12.3733 151.481 13.12C153.455 13.8667 155.108 14.8933 156.441 16.2C157.775 17.48 158.775 18.96 159.441 20.64C160.108 22.32 160.441 24.1067 160.441 26C160.441 27.92 160.108 29.7333 159.441 31.44C158.775 33.12 157.775 34.6 156.441 35.88C155.108 37.16 153.455 38.1733 151.481 38.92C149.535 39.64 147.281 40 144.721 40H130.561ZM134.881 36.28L134.761 35.84H144.521C146.521 35.84 148.228 35.5867 149.641 35.08C151.081 34.5733 152.255 33.8667 153.161 32.96C154.068 32.0533 154.735 31.0133 155.161 29.84C155.615 28.64 155.841 27.36 155.841 26C155.841 24.6667 155.615 23.4133 155.161 22.24C154.735 21.0667 154.068 20.0267 153.161 19.12C152.255 18.1867 151.081 17.4667 149.641 16.96C148.228 16.4267 146.521 16.16 144.521 16.16H134.641L134.881 15.8V36.28ZM172.827 40V12H196.067V16.16H177.147V35.84H196.067V40H172.827ZM175.187 27.72V23.56H193.867V27.72H175.187ZM209.741 40V12H214.021L236.741 34.92L236.501 35.28C236.368 34.48 236.248 33.6267 236.141 32.72C236.061 31.7867 235.994 30.84 235.941 29.88C235.888 28.8933 235.834 27.9067 235.781 26.92C235.754 25.9067 235.728 24.92 235.701 23.96C235.701 23 235.701 22.08 235.701 21.2V12H240.021V40H235.661L213.221 17.92L213.261 17.36C213.314 17.84 213.368 18.4133 213.421 19.08C213.474 19.7467 213.541 20.4667 213.621 21.24C213.701 22.0133 213.768 22.8133 213.821 23.64C213.901 24.44 213.954 25.2533 213.981 26.08C214.034 26.88 214.061 27.64 214.061 28.36V40H209.741ZM273.999 40V12H288.159C290.719 12 292.972 12.3733 294.919 13.12C296.892 13.8667 298.545 14.8933 299.879 16.2C301.212 17.48 302.212 18.96 302.879 20.64C303.545 22.32 303.879 24.1067 303.879 26C303.879 27.92 303.545 29.7333 302.879 31.44C302.212 33.12 301.212 34.6 299.879 35.88C298.545 37.16 296.892 38.1733 294.919 38.92C292.972 39.64 290.719 40 288.159 40H273.999ZM278.319 36.28L278.199 35.84H287.959C289.959 35.84 291.665 35.5867 293.079 35.08C294.519 34.5733 295.692 33.8667 296.599 32.96C297.505 32.0533 298.172 31.0133 298.599 29.84C299.052 28.64 299.279 27.36 299.279 26C299.279 24.6667 299.052 23.4133 298.599 22.24C298.172 21.0667 297.505 20.0267 296.599 19.12C295.692 18.1867 294.519 17.4667 293.079 16.96C291.665 16.4267 289.959 16.16 287.959 16.16H278.079L278.319 15.8V36.28ZM311.883 40L325.563 12H330.603L344.203 40H339.443L330.043 20.72C329.803 20.2133 329.563 19.72 329.323 19.24C329.083 18.76 328.843 18.28 328.603 17.8C328.39 17.32 328.176 16.8133 327.963 16.28C327.75 15.7467 327.536 15.16 327.323 14.52L328.603 14.48C328.363 15.12 328.123 15.72 327.883 16.28C327.67 16.84 327.443 17.3733 327.203 17.88C326.963 18.3867 326.723 18.8933 326.483 19.4C326.243 19.88 326.003 20.3733 325.763 20.88L316.443 40H311.883ZM317.843 33.44L319.563 29.28H336.163L336.843 33.44H317.843ZM360.289 40L349.969 12H354.729L360.649 28.44C360.862 29.0267 361.076 29.6533 361.289 30.32C361.502 30.9867 361.716 31.6667 361.929 32.36C362.142 33.0267 362.342 33.68 362.529 34.32C362.716 34.9333 362.889 35.5067 363.049 36.04L361.289 36C361.556 35.28 361.849 34.4933 362.169 33.64C362.516 32.76 362.876 31.88 363.249 31C363.622 30.0933 363.982 29.24 364.329 28.44L369.489 16.84H373.649L378.649 28.36C378.996 29.1067 379.342 29.92 379.689 30.8C380.062 31.68 380.409 32.5333 380.729 33.36C381.076 34.1867 381.329 34.9467 381.489 35.64L379.889 35.92C380.022 35.4667 380.156 35 380.289 34.52C380.449 34.0133 380.609 33.4933 380.769 32.96C380.929 32.4 381.102 31.8533 381.289 31.32C381.476 30.76 381.662 30.2133 381.849 29.68C382.062 29.1467 382.262 28.64 382.449 28.16L389.009 12H393.649L382.129 40H379.129L371.009 21.16L371.769 21.32L363.609 40H360.289ZM404.624 40V12H408.904L431.624 34.92L431.384 35.28C431.25 34.48 431.13 33.6267 431.024 32.72C430.944 31.7867 430.877 30.84 430.824 29.88C430.77 28.8933 430.717 27.9067 430.664 26.92C430.637 25.9067 430.61 24.92 430.584 23.96C430.584 23 430.584 22.08 430.584 21.2V12H434.904V40H430.544L408.104 17.92L408.144 17.36C408.197 17.84 408.25 18.4133 408.304 19.08C408.357 19.7467 408.424 20.4667 408.504 21.24C408.584 22.0133 408.65 22.8133 408.704 23.64C408.784 24.44 408.837 25.2533 408.864 26.08C408.917 26.88 408.944 27.64 408.944 28.36V40H404.624Z" fill="white"/>
<path d="M14.464 71V59.8H16.192V71H14.464ZM4.912 71V59.8H6.64V71H4.912ZM5.664 66.312L5.68 64.648H15.232V66.312H5.664ZM27.9254 71.16C26.9334 71.16 26.0267 71.016 25.2054 70.728C24.384 70.4293 23.6694 70.0187 23.0614 69.496C22.4534 68.9627 21.984 68.3493 21.6534 67.656C21.3227 66.952 21.1574 66.2 21.1574 65.4C21.1574 64.6 21.3227 63.8533 21.6534 63.16C21.984 62.456 22.4534 61.8427 23.0614 61.32C23.6694 60.7867 24.384 60.376 25.2054 60.088C26.0267 59.7893 26.9334 59.64 27.9254 59.64C28.9067 59.64 29.808 59.7893 30.6294 60.088C31.4507 60.376 32.1654 60.7867 32.7734 61.32C33.3814 61.8427 33.8507 62.456 34.1814 63.16C34.5227 63.8533 34.6934 64.6 34.6934 65.4C34.6934 66.2 34.5227 66.952 34.1814 67.656C33.8507 68.3493 33.3814 68.9627 32.7734 69.496C32.1654 70.0187 31.4507 70.4293 30.6294 70.728C29.808 71.016 28.9067 71.16 27.9254 71.16ZM27.9254 69.48C28.6614 69.48 29.3334 69.3787 29.9414 69.176C30.5494 68.9627 31.0774 68.6747 31.5254 68.312C31.9734 67.9387 32.32 67.5067 32.5654 67.016C32.8107 66.5147 32.9334 65.976 32.9334 65.4C32.9334 64.824 32.8107 64.2907 32.5654 63.8C32.32 63.2987 31.9734 62.8667 31.5254 62.504C31.0774 62.1307 30.5494 61.8427 29.9414 61.64C29.3334 61.4267 28.6614 61.32 27.9254 61.32C27.1894 61.32 26.512 61.4267 25.8934 61.64C25.2854 61.8427 24.7574 62.1307 24.3094 62.504C23.8614 62.8667 23.5147 63.2987 23.2694 63.8C23.0347 64.2907 22.9174 64.824 22.9174 65.4C22.9174 65.976 23.0347 66.5147 23.2694 67.016C23.5147 67.5067 23.8614 67.9387 24.3094 68.312C24.7574 68.6747 25.2854 68.9627 25.8934 69.176C26.512 69.3787 27.1894 69.48 27.9254 69.48ZM42.106 71V61.464H37.85V59.8H48.186V61.464H43.834V71H42.106ZM52.6933 71V59.8H61.9893V61.464H54.4213V69.336H61.9893V71H52.6933ZM53.6373 66.088V64.424H61.1093V66.088H53.6373ZM67.4589 71V59.8H69.1869V69.336H76.6749V71H67.4589ZM86.5699 71.16C85.7699 71.16 85.0285 71.08 84.3459 70.92C83.6739 70.76 83.0552 70.52 82.4899 70.2C81.9352 69.88 81.4285 69.4747 80.9699 68.984L82.0579 67.544C82.7512 68.2587 83.4552 68.7813 84.1699 69.112C84.8952 69.4427 85.7005 69.608 86.5859 69.608C87.1405 69.608 87.6739 69.544 88.1859 69.416C88.6979 69.2773 89.1192 69.0747 89.4499 68.808C89.7805 68.5307 89.9459 68.184 89.9459 67.768C89.9459 67.5013 89.8552 67.2827 89.6739 67.112C89.4925 66.9413 89.2525 66.8027 88.9539 66.696C88.6659 66.5893 88.3512 66.504 88.0099 66.44C87.6685 66.376 87.3379 66.328 87.0179 66.296C86.7085 66.264 86.4472 66.2373 86.2339 66.216C85.5192 66.12 84.8685 65.992 84.2819 65.832C83.7059 65.6613 83.2099 65.448 82.7939 65.192C82.3885 64.936 82.0739 64.6213 81.8499 64.248C81.6365 63.8747 81.5299 63.4427 81.5299 62.952C81.5299 62.4293 81.6525 61.9653 81.8979 61.56C82.1539 61.144 82.5059 60.7973 82.9539 60.52C83.4125 60.232 83.9405 60.0133 84.5379 59.864C85.1459 59.7147 85.8019 59.64 86.5059 59.64C87.2525 59.64 87.9352 59.7147 88.5539 59.864C89.1725 60.0133 89.7219 60.2373 90.2019 60.536C90.6925 60.824 91.0979 61.1813 91.4179 61.608L90.2659 62.872C89.9672 62.5093 89.6205 62.2053 89.2259 61.96C88.8312 61.704 88.3992 61.512 87.9299 61.384C87.4712 61.256 86.9805 61.192 86.4579 61.192C85.8819 61.192 85.3645 61.256 84.9059 61.384C84.4472 61.512 84.0845 61.6933 83.8179 61.928C83.5512 62.152 83.4179 62.4293 83.4179 62.76C83.4179 63.048 83.4979 63.2933 83.6579 63.496C83.8285 63.6987 84.0632 63.8693 84.3619 64.008C84.6605 64.136 85.0179 64.2427 85.4339 64.328C85.8605 64.4133 86.3299 64.488 86.8419 64.552C87.4819 64.6267 88.1005 64.7227 88.6979 64.84C89.2952 64.9573 89.8285 65.1227 90.2979 65.336C90.7672 65.5387 91.1405 65.816 91.4179 66.168C91.6952 66.52 91.8339 66.9787 91.8339 67.544C91.8339 68.2693 91.6152 68.904 91.1779 69.448C90.7405 69.992 90.1272 70.4133 89.3379 70.712C88.5592 71.0107 87.6365 71.16 86.5699 71.16Z" fill="white"/>
<path d="M121.912 71V59.8H128.456C129.117 59.8 129.72 59.9547 130.264 60.264C130.819 60.5627 131.261 60.9733 131.592 61.496C131.923 62.0187 132.088 62.6 132.088 63.24C132.088 63.912 131.907 64.5253 131.544 65.08C131.181 65.624 130.701 66.0613 130.104 66.392C129.507 66.712 128.851 66.872 128.136 66.872H123.64V71H121.912ZM130.584 71L126.776 65.944L128.616 65.544L132.744 71.016L130.584 71ZM123.64 65.208H127.976C128.381 65.208 128.755 65.1173 129.096 64.936C129.448 64.7547 129.725 64.5147 129.928 64.216C130.141 63.9173 130.248 63.592 130.248 63.24C130.248 62.9093 130.141 62.6107 129.928 62.344C129.725 62.0773 129.448 61.864 129.096 61.704C128.755 61.544 128.381 61.464 127.976 61.464H123.64V65.208ZM138.084 71V59.8H147.38V61.464H139.812V69.336H147.38V71H138.084ZM139.028 66.088V64.424H146.5V66.088H139.028ZM157.586 71.16C156.786 71.16 156.044 71.08 155.362 70.92C154.69 70.76 154.071 70.52 153.506 70.2C152.951 69.88 152.444 69.4747 151.986 68.984L153.074 67.544C153.767 68.2587 154.471 68.7813 155.186 69.112C155.911 69.4427 156.716 69.608 157.602 69.608C158.156 69.608 158.69 69.544 159.202 69.416C159.714 69.2773 160.135 69.0747 160.466 68.808C160.796 68.5307 160.962 68.184 160.962 67.768C160.962 67.5013 160.871 67.2827 160.69 67.112C160.508 66.9413 160.268 66.8027 159.97 66.696C159.682 66.5893 159.367 66.504 159.026 66.44C158.684 66.376 158.354 66.328 158.034 66.296C157.724 66.264 157.463 66.2373 157.25 66.216C156.535 66.12 155.884 65.992 155.298 65.832C154.722 65.6613 154.226 65.448 153.81 65.192C153.404 64.936 153.09 64.6213 152.866 64.248C152.652 63.8747 152.546 63.4427 152.546 62.952C152.546 62.4293 152.668 61.9653 152.914 61.56C153.17 61.144 153.522 60.7973 153.97 60.52C154.428 60.232 154.956 60.0133 155.554 59.864C156.162 59.7147 156.818 59.64 157.522 59.64C158.268 59.64 158.951 59.7147 159.57 59.864C160.188 60.0133 160.738 60.2373 161.218 60.536C161.708 60.824 162.114 61.1813 162.434 61.608L161.282 62.872C160.983 62.5093 160.636 62.2053 160.242 61.96C159.847 61.704 159.415 61.512 158.946 61.384C158.487 61.256 157.996 61.192 157.474 61.192C156.898 61.192 156.38 61.256 155.922 61.384C155.463 61.512 155.1 61.6933 154.834 61.928C154.567 62.152 154.434 62.4293 154.434 62.76C154.434 63.048 154.514 63.2933 154.674 63.496C154.844 63.6987 155.079 63.8693 155.378 64.008C155.676 64.136 156.034 64.2427 156.45 64.328C156.876 64.4133 157.346 64.488 157.858 64.552C158.498 64.6267 159.116 64.7227 159.714 64.84C160.311 64.9573 160.844 65.1227 161.314 65.336C161.783 65.5387 162.156 65.816 162.434 66.168C162.711 66.52 162.85 66.9787 162.85 67.544C162.85 68.2693 162.631 68.904 162.194 69.448C161.756 69.992 161.143 70.4133 160.354 70.712C159.575 71.0107 158.652 71.16 157.586 71.16ZM170.747 71V61.464H166.491V59.8H176.827V61.464H172.475V71H170.747ZM179.097 71L184.569 59.8H186.585L192.025 71H190.121L186.361 63.288C186.265 63.0853 186.169 62.888 186.073 62.696C185.977 62.504 185.881 62.312 185.785 62.12C185.7 61.928 185.614 61.7253 185.529 61.512C185.444 61.2987 185.358 61.064 185.273 60.808L185.785 60.792C185.689 61.048 185.593 61.288 185.497 61.512C185.412 61.736 185.321 61.9493 185.225 62.152C185.129 62.3547 185.033 62.5573 184.937 62.76C184.841 62.952 184.745 63.1493 184.649 63.352L180.921 71H179.097ZM181.481 68.376L182.169 66.712H188.809L189.081 68.376H181.481ZM201.54 71.096C200.409 71.096 199.422 70.8613 198.58 70.392C197.737 69.912 197.081 69.2613 196.612 68.44C196.142 67.6187 195.908 66.6853 195.908 65.64V59.784H197.636V65.576C197.636 66.312 197.806 66.9733 198.148 67.56C198.5 68.136 198.969 68.5893 199.556 68.92C200.153 69.2507 200.814 69.416 201.54 69.416C202.308 69.416 202.99 69.2507 203.588 68.92C204.185 68.5893 204.654 68.136 204.996 67.56C205.348 66.9733 205.524 66.312 205.524 65.576V59.784H207.172V65.64C207.172 66.6853 206.937 67.6187 206.468 68.44C205.998 69.2613 205.342 69.912 204.5 70.392C203.657 70.8613 202.67 71.096 201.54 71.096ZM212.803 71V59.8H219.347C220.008 59.8 220.611 59.9547 221.155 60.264C221.709 60.5627 222.152 60.9733 222.483 61.496C222.813 62.0187 222.979 62.6 222.979 63.24C222.979 63.912 222.797 64.5253 222.435 65.08C222.072 65.624 221.592 66.0613 220.995 66.392C220.397 66.712 219.741 66.872 219.027 66.872H214.531V71H212.803ZM221.475 71L217.667 65.944L219.507 65.544L223.635 71.016L221.475 71ZM214.531 65.208H218.867C219.272 65.208 219.645 65.1173 219.987 64.936C220.339 64.7547 220.616 64.5147 220.819 64.216C221.032 63.9173 221.139 63.592 221.139 63.24C221.139 62.9093 221.032 62.6107 220.819 62.344C220.616 62.0773 220.339 61.864 219.987 61.704C219.645 61.544 219.272 61.464 218.867 61.464H214.531V65.208ZM227.535 71L233.007 59.8H235.023L240.463 71H238.559L234.799 63.288C234.703 63.0853 234.606 62.888 234.51 62.696C234.415 62.504 234.319 62.312 234.223 62.12C234.137 61.928 234.052 61.7253 233.967 61.512C233.881 61.2987 233.796 61.064 233.711 60.808L234.223 60.792C234.127 61.048 234.031 61.288 233.935 61.512C233.849 61.736 233.759 61.9493 233.663 62.152C233.567 62.3547 233.471 62.5573 233.375 62.76C233.279 62.952 233.183 63.1493 233.087 63.352L229.359 71H227.535ZM229.919 68.376L230.607 66.712H237.247L237.519 68.376H229.919ZM244.85 71V59.8H246.562L255.65 68.968L255.554 69.112C255.5 68.792 255.452 68.4507 255.41 68.088C255.378 67.7147 255.351 67.336 255.33 66.952C255.308 66.5573 255.287 66.1627 255.266 65.768C255.255 65.3627 255.244 64.968 255.234 64.584C255.234 64.2 255.234 63.832 255.234 63.48V59.8H256.962V71H255.218L246.242 62.168L246.258 61.944C246.279 62.136 246.3 62.3653 246.322 62.632C246.343 62.8987 246.37 63.1867 246.402 63.496C246.434 63.8053 246.46 64.1253 246.482 64.456C246.514 64.776 246.535 65.1013 246.546 65.432C246.567 65.752 246.578 66.056 246.578 66.344V71H244.85ZM265.731 71V61.464H261.475V59.8H271.811V61.464H267.459V71H265.731ZM281.054 71.16C280.254 71.16 279.513 71.08 278.83 70.92C278.158 70.76 277.54 70.52 276.974 70.2C276.42 69.88 275.913 69.4747 275.454 68.984L276.542 67.544C277.236 68.2587 277.94 68.7813 278.654 69.112C279.38 69.4427 280.185 69.608 281.07 69.608C281.625 69.608 282.158 69.544 282.67 69.416C283.182 69.2773 283.604 69.0747 283.934 68.808C284.265 68.5307 284.43 68.184 284.43 67.768C284.43 67.5013 284.34 67.2827 284.158 67.112C283.977 66.9413 283.737 66.8027 283.438 66.696C283.15 66.5893 282.836 66.504 282.494 66.44C282.153 66.376 281.822 66.328 281.502 66.296C281.193 66.264 280.932 66.2373 280.718 66.216C280.004 66.12 279.353 65.992 278.766 65.832C278.19 65.6613 277.694 65.448 277.278 65.192C276.873 64.936 276.558 64.6213 276.334 64.248C276.121 63.8747 276.014 63.4427 276.014 62.952C276.014 62.4293 276.137 61.9653 276.382 61.56C276.638 61.144 276.99 60.7973 277.438 60.52C277.897 60.232 278.425 60.0133 279.022 59.864C279.63 59.7147 280.286 59.64 280.99 59.64C281.737 59.64 282.42 59.7147 283.038 59.864C283.657 60.0133 284.206 60.2373 284.686 60.536C285.177 60.824 285.582 61.1813 285.902 61.608L284.75 62.872C284.452 62.5093 284.105 62.2053 283.71 61.96C283.316 61.704 282.884 61.512 282.414 61.384C281.956 61.256 281.465 61.192 280.942 61.192C280.366 61.192 279.849 61.256 279.39 61.384C278.932 61.512 278.569 61.6933 278.302 61.928C278.036 62.152 277.902 62.4293 277.902 62.76C277.902 63.048 277.982 63.2933 278.142 63.496C278.313 63.6987 278.548 63.8693 278.846 64.008C279.145 64.136 279.502 64.2427 279.918 64.328C280.345 64.4133 280.814 64.488 281.326 64.552C281.966 64.6267 282.585 64.7227 283.182 64.84C283.78 64.9573 284.313 65.1227 284.782 65.336C285.252 65.5387 285.625 65.816 285.902 66.168C286.18 66.52 286.318 66.9787 286.318 67.544C286.318 68.2693 286.1 68.904 285.662 69.448C285.225 69.992 284.612 70.4133 283.822 70.712C283.044 71.0107 282.121 71.16 281.054 71.16Z" fill="white"/>
<path d="M392.912 71V59.8H399.024C399.963 59.8 400.747 59.912 401.376 60.136C402.005 60.3493 402.48 60.664 402.8 61.08C403.12 61.496 403.28 62.008 403.28 62.616C403.28 63.2027 403.083 63.7147 402.688 64.152C402.293 64.5787 401.717 64.8827 400.96 65.064L401.072 64.76C401.552 64.8667 402.005 65.0373 402.432 65.272C402.859 65.5067 403.205 65.8267 403.472 66.232C403.739 66.6267 403.872 67.1173 403.872 67.704C403.872 68.3547 403.739 68.8933 403.472 69.32C403.216 69.7467 402.869 70.0827 402.432 70.328C402.005 70.5733 401.531 70.7493 401.008 70.856C400.485 70.952 399.963 71 399.44 71H392.912ZM394.64 69.336H399.504C400.016 69.336 400.464 69.2773 400.848 69.16C401.243 69.0427 401.552 68.8613 401.776 68.616C402 68.36 402.112 68.0453 402.112 67.672C402.112 67.2453 401.973 66.9147 401.696 66.68C401.419 66.4453 401.072 66.28 400.656 66.184C400.24 66.0773 399.829 66.024 399.424 66.024H394.64V69.336ZM394.64 64.344H399.344C399.728 64.344 400.085 64.2853 400.416 64.168C400.747 64.0507 401.008 63.88 401.2 63.656C401.403 63.432 401.504 63.1707 401.504 62.872C401.504 62.36 401.275 61.9973 400.816 61.784C400.368 61.5707 399.813 61.464 399.152 61.464H394.64V64.344ZM407.394 71L412.866 59.8H414.882L420.322 71H418.418L414.658 63.288C414.562 63.0853 414.466 62.888 414.37 62.696C414.274 62.504 414.178 62.312 414.082 62.12C413.997 61.928 413.911 61.7253 413.826 61.512C413.741 61.2987 413.655 61.064 413.57 60.808L414.082 60.792C413.986 61.048 413.89 61.288 413.794 61.512C413.709 61.736 413.618 61.9493 413.522 62.152C413.426 62.3547 413.33 62.5573 413.234 62.76C413.138 62.952 413.042 63.1493 412.946 63.352L409.218 71H407.394ZM409.778 68.376L410.466 66.712H417.106L417.378 68.376H409.778ZM424.709 71V59.8H431.253C431.914 59.8 432.517 59.9547 433.061 60.264C433.616 60.5627 434.058 60.9733 434.389 61.496C434.72 62.0187 434.885 62.6 434.885 63.24C434.885 63.912 434.704 64.5253 434.341 65.08C433.978 65.624 433.498 66.0613 432.901 66.392C432.304 66.712 431.648 66.872 430.933 66.872H426.437V71H424.709ZM433.381 71L429.573 65.944L431.413 65.544L435.541 71.016L433.381 71ZM426.437 65.208H430.773C431.178 65.208 431.552 65.1173 431.893 64.936C432.245 64.7547 432.522 64.5147 432.725 64.216C432.938 63.9173 433.045 63.592 433.045 63.24C433.045 62.9093 432.938 62.6107 432.725 62.344C432.522 62.0773 432.245 61.864 431.893 61.704C431.552 61.544 431.178 61.464 430.773 61.464H426.437V65.208Z" fill="white"/>
<path d="M315.472 71L320.944 59.8H322.96L328.4 71H326.496L322.736 63.288C322.64 63.0853 322.544 62.888 322.448 62.696C322.352 62.504 322.256 62.312 322.16 62.12C322.075 61.928 321.989 61.7253 321.904 61.512C321.819 61.2987 321.733 61.064 321.648 60.808L322.16 60.792C322.064 61.048 321.968 61.288 321.872 61.512C321.787 61.736 321.696 61.9493 321.6 62.152C321.504 62.3547 321.408 62.5573 321.312 62.76C321.216 62.952 321.12 63.1493 321.024 63.352L317.296 71H315.472ZM317.856 68.376L318.544 66.712H325.184L325.456 68.376H317.856ZM332.787 71V59.8H334.499L343.587 68.968L343.491 69.112C343.438 68.792 343.39 68.4507 343.347 68.088C343.315 67.7147 343.288 67.336 343.267 66.952C343.246 66.5573 343.224 66.1627 343.203 65.768C343.192 65.3627 343.182 64.968 343.171 64.584C343.171 64.2 343.171 63.832 343.171 63.48V59.8H344.899V71H343.155L334.179 62.168L334.195 61.944C334.216 62.136 334.238 62.3653 334.259 62.632C334.28 62.8987 334.307 63.1867 334.339 63.496C334.371 63.8053 334.398 64.1253 334.419 64.456C334.451 64.776 334.472 65.1013 334.483 65.432C334.504 65.752 334.515 66.056 334.515 66.344V71H332.787ZM350.725 71V59.8H356.389C357.413 59.8 358.314 59.9493 359.093 60.248C359.882 60.5467 360.543 60.9573 361.077 61.48C361.61 61.992 362.01 62.584 362.277 63.256C362.543 63.928 362.677 64.6427 362.677 65.4C362.677 66.168 362.543 66.8933 362.277 67.576C362.01 68.248 361.61 68.84 361.077 69.352C360.543 69.864 359.882 70.2693 359.093 70.568C358.314 70.856 357.413 71 356.389 71H350.725ZM352.453 69.512L352.405 69.336H356.309C357.109 69.336 357.791 69.2347 358.357 69.032C358.933 68.8293 359.402 68.5467 359.765 68.184C360.127 67.8213 360.394 67.4053 360.565 66.936C360.746 66.456 360.837 65.944 360.837 65.4C360.837 64.8667 360.746 64.3653 360.565 63.896C360.394 63.4267 360.127 63.0107 359.765 62.648C359.402 62.2747 358.933 61.9867 358.357 61.784C357.791 61.5707 357.109 61.464 356.309 61.464H352.357L352.453 61.32V69.512Z" fill="white"/>
<path d="M435 48.5H5" stroke="white"/>
</svg>
